# xmcd CD database file
#
# Track frame offsets:
#	150
#	22192
#	44252
#	64707
#
# Disc length: 1154 seconds
#
# Revision: 0
# Processed by: cddbd v1.5PL3 Copyright (c) Steve Scherf et al.
# Submitted via: CDex 1.51
#
DISCID=30048004
DTITLE=RING - PRIVATE PARADISE
DYEAR=1998
DGENRE=Other
TTITLE0=PRIVATE PARADISE (JAPANESE VERSION)
TTITLE1=PRIVATE PARADISE (MANDARIN VERSION)
TTITLE2=PRIVATE PARADISE (TK PIANO VERSION)
TTITLE3=PRIVATE PARADISE TV MIX (JAPANESE VERSION)
EXTD=YEAR: 1998
EXTT0=
EXTT1=
EXTT2=
EXTT3=
PLAYORDER=
